<?xml version="1.0" encoding="UTF-8"?>
<svg id="Layer_2" data-name="Layer 2" xmlns="http://www.w3.org/2000/svg" viewBox="0 0 255.99 341.95">
  <g id="Layer_1-2" data-name="Layer 1">
    <g>
      <path d="M159.99,114.16l-5.53,1.47c1.88.34,3.72.74,5.53,1.19,1.17.29,2.33.61,3.47.96,10.86,3.21,20.37,8.43,28.53,15.27,5.75,4.82,10.82,10.44,15.21,16.73,6.52,9.35,11.53,20.16,15,32,.66,2.22,1.26,4.48,1.79,6.77,1.92,8.05,3.16,16.5,3.72,25.23.22,3.47.34,6.98.35,10.52l-4.07-4.1-6.37-6.42-25.63-25.84-6.11-6.16-25.89-26.1-5.86-5.9-25.98-26.2-.16.16-25.83,26.04-6.17,6.22-25.57,25.78-6.43,6.48-25.31,25.52-6.69,6.74-3.75,3.78c.01-3.54.13-7.05.35-10.52.53-8.23,1.66-16.22,3.4-23.85.62-2.76,1.32-5.48,2.11-8.15,3.47-11.84,8.48-22.65,15-32,4.3-6.17,9.27-11.7,14.89-16.45,8.22-6.98,17.84-12.3,28.84-15.55,1.04-.32,2.1-.61,3.16-.88,1.54-.39,3.09-.74,4.68-1.05l-4.68-1.25-32-8.5-32-8.51L1.2,89.41l-1.2-.32c1.38-.79,2.76-1.56,4.15-2.31.05-.03.1-.05.15-.08.57-.31,1.14-.61,1.72-.92.49-.26.99-.51,1.49-.77,2.4-1.22,4.81-2.38,7.23-3.46.51-.23,1.02-.46,1.53-.68.93-.41,1.86-.81,2.79-1.19.51-.21,1.02-.42,1.53-.62.54-.22,1.08-.43,1.62-.64,1.08-.42,2.17-.83,3.26-1.22.54-.2,1.09-.39,1.63-.58,1.63-.57,3.26-1.1,4.89-1.6,10.79-3.31,21.55-5.17,32-5.41,11.14-.26,21.93,1.3,32,4.87.6.21,1.2.43,1.79.66.31.11.62.24.93.36.31.12.63.25.94.38.43.17.85.35,1.27.54.54.23,1.08.47,1.62.72.63.28,1.24.57,1.86.87l-1.86-1.87-6.55-6.61-15.62-15.75-16.38-16.51-15.37-15.49L31.99,5.01l-3.75-3.78c1.26-.18,2.51-.34,3.75-.47,11.62-1.32,22.29-.9,32,1.02,12.18,2.41,22.86,7.18,32,13.85,2.61,1.89,5.09,3.94,7.45,6.15,9.31,8.65,16.67,19.55,22.05,32,.89,2.06,1.72,4.16,2.5,6.3.08.2.15.41.22.62.86-2.36,1.78-4.67,2.76-6.92,5.45-12.48,12.89-23.37,22.3-32,2.14-1.97,4.38-3.82,6.72-5.54,9.14-6.72,19.81-11.55,32-14,9.71-1.96,20.38-2.42,32-1.13,1.34.14,2.7.32,4.07.51l-4.07,4.1-15.93,16.06-16.07,16.2-15.67,15.8-16.33,16.46-6.28,6.33c2.06-.94,4.15-1.78,6.28-2.53,10.08-3.58,20.86-5.14,32-4.88,10.45.24,21.22,2.09,32,5.41,8.98,2.75,17.98,6.51,26.83,11.21,1.73.91,3.45,1.87,5.17,2.85h0s-32,8.52-32,8.52l-32,8.5-32,8.51Z"/>
      <path d="M149.94,213.56h-43.23l11-31.78.32-.91c1.18-3.41,4.4-5.7,8.01-5.7h4.57c3.62,0,6.83,2.29,8.02,5.7l.31.91,11,31.78Z"/>
      <path d="M144.47,166.44h-33.2l6.28-16.66,2.41-6.39c.92-2.43,3.24-4.04,5.84-4.04h4.14c2.6,0,4.93,1.61,5.85,4.04l2.41,6.39,6.27,16.66Z"/>
      <g>
        <path d="M160.04,254.96c0,.63-.02,1.25-.05,1.87v-3.74c.03.62.05,1.24.05,1.87Z"/>
        <path d="M160.04,341.95h-65l.06-.17.89-2.48,10.58-29.52,8.71-24.3c-4.25-1.75-8.05-4.39-11.17-7.7-3.88-4.08-6.73-9.19-8.12-14.87-.62-2.55-.95-5.21-.95-7.95s.33-5.4.95-7.95c.1-.41.21-.82.33-1.23,3.92-13.74,16.41-23.78,31.22-23.78.15,0,.3,0,.45.01,14.61.19,26.89,10.17,30.77,23.77.67,2.34,1.09,4.79,1.23,7.31v3.74c-.45,8.12-3.8,15.45-9.02,20.95-3.12,3.31-6.92,5.95-11.17,7.7l8.71,24.3,11.47,32v.03s.06.14.06.14Z"/>
      </g>
    </g>
  </g>
</svg>