<?xml version="1.0" encoding="UTF-8"?>
<svg id="Layer_13" xmlns="http://www.w3.org/2000/svg" viewBox="0 0 1024 1024">
  <defs>
    <style>
      .cls-1 {
        fill: #66cb66;
      }
    </style>
  </defs>
  <g id="logo-2" data-name="logo">
    <path id="keyhole-2" data-name="keyhole" class="cls-1" d="M601.25,800.87l68.96,223.13h-316.43l68.96-223.13c-41.64-28.49-68.96-76.38-68.96-130.65,0-87.38,70.84-158.22,158.22-158.22s158.21,70.84,158.21,158.22c0,54.27-27.32,102.15-68.96,130.65Z"/>
    <path id="leaves-2" data-name="leaves" class="cls-1" d="M926.22,343.14h-146.84c143.19,162.32,146.82,350.66,146.84,387.73l-253.52-253.52c10.39,53.29,11,93.48,11.01,108.57l-171.7-171.7-171.72,171.7c.01-15.09.62-55.27,11.01-108.56l-253.52,253.5c.03-37.07,3.65-225.41,146.84-387.73H97.78c18.54-18.51,91.76-89.17,209.36-133.78L97.78,0c39.1.03,246.55,4.06,414.21,171.72h.01C679.66,4.06,887.1.03,926.22,0l-209.36,209.36c117.6,44.62,190.83,115.27,209.36,133.78Z"/>
  </g>
</svg>