<?xml version="1.0" encoding="UTF-8"?>
<svg xmlns="http://www.w3.org/2000/svg" viewBox="0 0 768 768">
  <defs>
    <style>
      .cls-1 {
        fill: none;
        stroke: #000;
        stroke-miterlimit: 10;
        stroke-width: .5px;
      }

      .cls-2 {
        fill: #fff;
        fill-rule: evenodd;
      }

      .cls-3 {
        fill: #66cb66;
      }
    </style>
  </defs>
  <g id="Grid">
    <line class="cls-1" x1="214.67" y1="516.66" x2="214.67" y2="516.65"/>
  </g>
  <g id="Fill">
    <g>
      <rect class="cls-3" x="0" y="0" width="768" height="768" rx="128" ry="128"/>
      <path class="cls-2" d="M650.13,290.31c-6.36-31.35-19.68-60.8-38.75-86.15h-.01c-12.25-16.32-26.75-30.83-43.07-43.08h-.01c-36.94-27.86-82.61-43.17-129.23-43.08H162.94c-14.04,0-25.42,11.38-25.42,25.42v405.35c0,15.11,2.59,29.6,7.35,43.08,14.14,40.52,48.93,72.12,90.52,82.31h0c10.04,2.52,20.54,3.84,31.35,3.84h43.08c15.11,0,29.6-2.6,43.08-7.37,50.91-17.6,86.64-67.76,86.15-121.86,46.61.1,92.3-15.21,129.23-43.07.01,0,.01-.01.01-.01,16.31-12.24,30.81-26.75,43.07-43.07t.01-.01c36.69-48.12,51.13-112.96,38.75-172.31ZM605.95,376.46c-20.97,80.5-94.79,133.29-177.66,129.23-8.45-33.85-19.34-77.32-27.81-111.25h0c68.68-58.04,40.98-169.05-47.01-188.01h0c-14.29-3.01-29.82-3.03-44.2-.01h0c-31.47,6.44-59.02,27.57-73.64,56.06,0,.01-.01.03-.01.05-23.15,44.01-11.69,100.42,26.64,131.91h0c-5.41,21.74-12.36,49.4-17.76,71.09h0s-10.04,40.17-10.04,40.17l-.58,2.39v.05s-.03.03-.03.05l-8.95,35.78c-.61,2.45,1.24,4.82,3.76,4.82h135.45c6.69-.22,2.38-9.22,1.78-12.74l-6.85-27.4c-.43-1.73-1.98-2.94-3.76-2.94h-72.79c-2.52,0-4.37-2.37-3.76-4.81,9.83-39.29,21.24-85.01,31.11-124.42h0c.48-1.91-.54-3.84-2.36-4.57-21.61-8.49-37.39-28.82-40.2-51.82v-.03c-1.8-13.92,1.09-28.25,7.97-40.23,0-.01.01-.02.01-.03,27.83-47.84,98.19-41.56,117.05,10.53,11.75,31.95-5.2,69.36-37.04,81.59-1.82.72-2.84,2.67-2.35,4.57h0c10.51,42.11,22.45,89.71,32.91,131.69v.02c.5,1.96,7.52,29.97,9.59,38.29.39,1.57.58,3.17.54,4.79,0,0,0,.02,0,.03-.83,30.12-17.38,57.27-43.04,72.12-12.67,7.33-27.38,11.53-43.08,11.53h-43.08c-21.85.06-43.04-8.38-58.82-23.21-16.7-15.69-26.58-36.92-27.3-60.44-.1-2.31,0-383.81-.03-386.33,0-2.14,1.74-3.87,3.88-3.87h254.58c14.87,0,29.31,1.89,43.08,5.42,33.44,8.61,63.45,27.18,86.15,52.91,37.45,41.6,52.03,102.86,37.66,157.05Z"/>
    </g>
  </g>
</svg>